# xmcd CD database file
#
# Track frame offsets:
#	150
#	13112
#	25045
#	49532
#	67170
#	96760
#	121352
#	162335
#	180517
#	206610
#	228155
#	255177
#
# Disc length: 3643 seconds
#
# Revision: 0
# Processed by: cddbd v1.5.2PL0 Copyright (c) Steve Scherf et al.
# Submitted via: CDex 1.70beta2
#
DISCID=920e390c
DTITLE=Teo Macero - Teo for Two Vol.1
DYEAR=2004
DGENRE=Jazz
TTITLE0=Shasta
TTITLE1=The Fifth Universe
TTITLE2=Blues Mode for Walkin'
TTITLE3=Back Me Up Monk
TTITLE4=Salute to Gil and Miles
TTITLE5=Carnival
TTITLE6=Soul Factory
TTITLE7=Space Triangle
TTITLE8=Blues Alley Jack
TTITLE9=Along the Nigger River
TTITLE10=Mission in Space
TTITLE11=Broad Bass
EXTD=YEAR: 2004
EXTT0=
EXTT1=
EXTT2=
EXTT3=
EXTT4=
EXTT5=
EXTT6=
EXTT7=
EXTT8=
EXTT9=
EXTT10=
EXTT11=
PLAYORDER=
